<svg width="24" height="22" viewBox="0 0 24 22" fill="none" xmlns="http://www.w3.org/2000/svg">
<path d="M20.7278 3.48333H17.4489L15.8306 1.05408C15.768 0.960396 15.6834 0.883611 15.584 0.830559C15.4847 0.777507 15.3737 0.749834 15.2611 0.750001H7.97222C7.8596 0.749834 7.74868 0.777507 7.64933 0.830559C7.54998 0.883611 7.46528 0.960396 7.40278 1.05408L5.78328 3.48333H2.50556C1.84104 3.48333 1.20374 3.74731 0.73386 4.21719C0.263977 4.68708 0 5.32438 0 5.98889V18.7444C0 19.409 0.263977 20.0463 0.73386 20.5161C1.20374 20.986 1.84104 21.25 2.50556 21.25H20.7278C21.3923 21.25 22.0296 20.986 22.4995 20.5161C22.9694 20.0463 23.2333 19.409 23.2333 18.7444V5.98889C23.2333 5.32438 22.9694 4.68708 22.4995 4.21719C22.0296 3.74731 21.3923 3.48333 20.7278 3.48333ZM21.8667 18.7444C21.8667 19.0465 21.7467 19.3362 21.5331 19.5498C21.3195 19.7633 21.0298 19.8833 20.7278 19.8833H2.50556C2.2035 19.8833 1.91382 19.7633 1.70024 19.5498C1.48666 19.3362 1.36667 19.0465 1.36667 18.7444V5.98889C1.36667 5.68684 1.48666 5.39716 1.70024 5.18357C1.91382 4.96999 2.2035 4.85 2.50556 4.85H6.15C6.26263 4.85017 6.37355 4.82249 6.47289 4.76944C6.57224 4.71639 6.65694 4.63961 6.71944 4.54592L8.33781 2.11667H14.8944L16.5139 4.54592C16.5764 4.63961 16.6611 4.71639 16.7604 4.76944C16.8598 4.82249 16.9707 4.85017 17.0833 4.85H20.7278C21.0298 4.85 21.3195 4.96999 21.5331 5.18357C21.7467 5.39716 21.8667 5.68684 21.8667 5.98889V18.7444ZM11.6167 7.12778C10.6706 7.12778 9.7458 7.40832 8.95919 7.93392C8.17257 8.45952 7.55948 9.20657 7.19744 10.0806C6.8354 10.9546 6.74068 11.9164 6.92524 12.8443C7.10981 13.7722 7.56538 14.6245 8.23434 15.2934C8.9033 15.9624 9.75561 16.418 10.6835 16.6025C11.6114 16.7871 12.5731 16.6924 13.4472 16.3303C14.3212 15.9683 15.0683 15.3552 15.5939 14.5686C16.1195 13.782 16.4 12.8572 16.4 11.9111C16.4 10.6425 15.896 9.42583 14.999 8.52878C14.1019 7.63174 12.8853 7.12778 11.6167 7.12778ZM11.6167 15.3278C10.9409 15.3278 10.2803 15.1274 9.71847 14.752C9.1566 14.3765 8.71868 13.8429 8.46008 13.2186C8.20148 12.5943 8.13382 11.9073 8.26565 11.2446C8.39748 10.5818 8.72289 9.97299 9.20072 9.49516C9.67855 9.01733 10.2873 8.69193 10.9501 8.5601C11.6129 8.42826 12.2999 8.49592 12.9242 8.75452C13.5485 9.01312 14.0821 9.45105 14.4575 10.0129C14.8329 10.5748 15.0333 11.2354 15.0333 11.9111C15.0333 12.8173 14.6734 13.6863 14.0326 14.3271C13.3919 14.9678 12.5228 15.3278 11.6167 15.3278Z" fill="black"/>
</svg>
