<svg width="26" height="39" viewBox="0 0 26 39" fill="none" xmlns="http://www.w3.org/2000/svg">
<path d="M2.91667 32.9023C1.84074 32.9023 0.972222 31.9643 0.972222 30.8023V3.9083C0.972222 2.7463 1.84074 1.8083 2.91667 1.8083H18.2454C19.3213 1.8083 20.1898 2.7463 20.1898 3.9083V4.9793H21.162V3.9083C21.162 2.1723 19.8528 0.758301 18.2454 0.758301H2.91667C1.30926 0.758301 0 2.1723 0 3.9083V30.8023C0 32.5383 1.30926 33.9523 2.91667 33.9523H4.36204V32.9023H2.91667Z" fill="#6073F6"/>
<path d="M2.9171 31.8521C2.37914 31.8521 1.94488 31.3831 1.94488 30.8021V3.90811C1.94488 3.32711 2.37914 2.85811 2.9171 2.85811H18.2458C18.7838 2.85811 19.218 3.32711 19.218 3.90811V4.97911H20.1903V3.90811C20.1903 2.74611 19.3217 1.80811 18.2458 1.80811H2.9171C1.84118 1.80811 0.972656 2.74611 0.972656 3.90811V30.8021C0.972656 31.9641 1.84118 32.9021 2.9171 32.9021H4.36247V31.8521H2.9171Z" fill="#6073F6"/>
<path d="M22.6047 4.97852H21.1594V6.02852H22.6047C23.6807 6.02852 24.5492 6.96652 24.5492 8.12852V35.0225C24.5492 36.1845 23.6807 37.1225 22.6047 37.1225H7.27604C6.20012 37.1225 5.3316 36.1845 5.3316 35.0225V33.9515H4.35938V35.0225C4.35938 36.7585 5.66863 38.1725 7.27604 38.1725H22.6047C24.2122 38.1725 25.5214 36.7585 25.5214 35.0225V8.12852C25.5214 6.39252 24.2122 4.97852 22.6047 4.97852Z" fill="#6073F6"/>
<path d="M7.27604 6.02852H19.2085V4.97852H7.27604C5.66863 4.97852 4.35938 6.39252 4.35938 8.12852V31.8515H5.3316V8.12852C5.3316 6.96652 6.20012 6.02852 7.27604 6.02852Z" fill="#6073F6"/>
<path d="M21.1636 4.97852H20.1914V6.02852H21.1636V4.97852Z" fill="#6073F6"/>
<path d="M5.3316 32.9019H4.35938V33.9519H5.3316V32.9019Z" fill="#6073F6"/>
<path d="M20.1871 4.97852H19.2148V6.02852H20.1871V4.97852Z" fill="#6073F6"/>
<path d="M5.3316 31.8521H4.35938V32.9021H5.3316V31.8521Z" fill="#6073F6"/>
<path d="M22.6052 7.07832C23.1431 7.07832 23.5774 7.54732 23.5774 8.12832V35.0223C23.5774 35.6033 23.1431 36.0723 22.6052 36.0723H7.27648C6.73851 36.0723 6.30425 35.6033 6.30425 35.0223V33.9513H5.33203V35.0223C5.33203 36.1843 6.20055 37.1223 7.27648 37.1223H22.6052C23.6811 37.1223 24.5496 36.1843 24.5496 35.0223V8.12832C24.5496 6.96632 23.6811 6.02832 22.6052 6.02832H21.1598V7.07832H22.6052Z" fill="#6073F6"/>
<path d="M7.27648 7.07832H19.2089V6.02832H7.27648C6.20055 6.02832 5.33203 6.96632 5.33203 8.12832V31.8513H6.30425V8.12832C6.30425 7.54732 6.73851 7.07832 7.27648 7.07832Z" fill="#6073F6"/>
<path d="M21.1636 6.02832H20.1914V7.07832H21.1636V6.02832Z" fill="#6073F6"/>
<path d="M6.30425 32.9019H5.33203V33.9519H6.30425V32.9019Z" fill="#6073F6"/>
<path d="M6.30425 31.8521H5.33203V32.9021H6.30425V31.8521Z" fill="#6073F6"/>
<path d="M20.1871 6.02832H19.2148V7.07832H20.1871V6.02832Z" fill="#6073F6"/>
</svg>
