<svg width="20" height="20" viewBox="0 0 20 20" fill="none" xmlns="http://www.w3.org/2000/svg">
<path fill-rule="evenodd" clip-rule="evenodd" d="M5.28107 7.29357C5.4686 7.1061 5.7229 7.00078 5.98807 7.00078C6.25323 7.00078 6.50754 7.1061 6.69507 7.29357L9.98807 10.5866L13.2811 7.29357C13.3733 7.19806 13.4837 7.12188 13.6057 7.06947C13.7277 7.01706 13.8589 6.98947 13.9917 6.98832C14.1244 6.98717 14.2561 7.01247 14.379 7.06275C14.5019 7.11303 14.6136 7.18728 14.7075 7.28117C14.8014 7.37507 14.8756 7.48672 14.9259 7.60962C14.9762 7.73251 15.0015 7.86419 15.0003 7.99697C14.9992 8.12975 14.9716 8.26097 14.9192 8.38297C14.8668 8.50498 14.7906 8.61532 14.6951 8.70757L10.6951 12.7076C10.5075 12.895 10.2532 13.0004 9.98807 13.0004C9.7229 13.0004 9.4686 12.895 9.28107 12.7076L5.28107 8.70757C5.0936 8.52004 4.98828 8.26573 4.98828 8.00057C4.98828 7.73541 5.0936 7.4811 5.28107 7.29357Z" fill="white"/>
</svg>
