<svg width="45" height="46" viewBox="0 0 45 46" fill="none" xmlns="http://www.w3.org/2000/svg">
<mask id="path-1-inside-1_1341_9035" fill="white">
<path d="M0 0H42C43.6569 0 45 1.34315 45 3V43C45 44.6569 43.6569 46 42 46H0V0Z"/>
</mask>
<path d="M0 0H42C43.6569 0 45 1.34315 45 3V43C45 44.6569 43.6569 46 42 46H0V0Z" fill="#F9D20B"/>
<path d="M33.4443 18.0791H11.7148V32.766H33.4443V18.0791Z" fill="white"/>
<path d="M23.5091 8.78223H11.7148V31.6152H23.5091V8.78223Z" fill="white"/>
<path d="M31.5386 31.6143H13.5351C11.792 31.6143 10.3789 33.0274 10.3789 34.7705C10.3789 36.5136 11.792 37.9267 13.5351 37.9267H31.5386C33.2817 37.9267 34.6948 36.5136 34.6948 34.7705C34.6948 33.0274 33.2817 31.6143 31.5386 31.6143Z" fill="#F9D20B"/>
<path d="M13.114 8.45996H23.4564C23.93 8.45996 24.3852 8.6429 24.7272 8.97057L33.3162 17.2018C33.6777 17.5482 33.8821 18.0272 33.8821 18.5278V36.0902C33.8821 37.1046 33.0598 37.9269 32.0455 37.9269H13.114C12.0996 37.9269 11.2773 37.1046 11.2773 36.0902V10.2966C11.2773 9.28225 12.0996 8.45996 13.114 8.45996Z" stroke="black" stroke-width="1.46931"/>
<path d="M28.0655 13.5367L28.0709 13.5418L28.0763 13.5468L32.6574 17.7153H23.832V9.55762L28.0655 13.5367Z" fill="black" stroke="black" stroke-width="1.46858"/>
<path d="M0 -2H42C44.7614 -2 47 0.238576 47 3H43C43 2.44772 42.5523 2 42 2H0V-2ZM47 43C47 45.7614 44.7614 48 42 48H0V44H42C42.5523 44 43 43.5523 43 43H47ZM0 46V0V46ZM42 -2C44.7614 -2 47 0.238576 47 3V43C47 45.7614 44.7614 48 42 48V44C42.5523 44 43 43.5523 43 43V3C43 2.44772 42.5523 2 42 2V-2Z" fill="white" mask="url(#path-1-inside-1_1341_9035)"/>
</svg>
