<svg width="13" height="12" viewBox="0 0 13 12" fill="none" xmlns="http://www.w3.org/2000/svg">
<path fill-rule="evenodd" clip-rule="evenodd" d="M11.4195 0.587668C11.5923 0.587775 11.758 0.656471 11.8802 0.778665C12.0024 0.900859 12.0711 1.06656 12.0712 1.23937L12.0712 8.6171C12.0743 8.70462 12.0597 8.79186 12.0284 8.87363C11.997 8.95539 11.9495 9.03 11.8887 9.09301C11.8279 9.15601 11.755 9.20612 11.6744 9.24035C11.5938 9.27457 11.5071 9.29221 11.4195 9.29221C11.332 9.29221 11.2453 9.27457 11.1647 9.24035C11.0841 9.20612 11.0112 9.15601 10.9504 9.09301C10.8895 9.03 10.842 8.95539 10.8107 8.87363C10.7793 8.79186 10.7647 8.70462 10.7678 8.6171L10.7678 2.81328L2.04366 11.5375C1.92136 11.6597 1.7555 11.7285 1.58255 11.7285C1.4096 11.7285 1.24373 11.6597 1.12144 11.5375C0.999145 11.4152 0.930441 11.2493 0.930441 11.0763C0.930441 10.9034 0.999145 10.7375 1.12144 10.6152L9.84561 1.89107L4.04179 1.89107C3.95427 1.89416 3.86703 1.87959 3.78527 1.84823C3.7035 1.81687 3.62889 1.76936 3.56588 1.70854C3.50288 1.64772 3.45277 1.57483 3.41854 1.49422C3.38432 1.41361 3.36668 1.32694 3.36668 1.23937C3.36668 1.15179 3.38432 1.06512 3.41854 0.984513C3.45277 0.903905 3.50288 0.831017 3.56588 0.770197C3.62889 0.709376 3.7035 0.661868 3.78527 0.630508C3.86703 0.599148 3.95427 0.584578 4.04179 0.587667L11.4195 0.587668Z" fill="#40A140"/>
</svg>
