<svg width="13" height="12" viewBox="0 0 13 12" fill="none" xmlns="http://www.w3.org/2000/svg">
<rect width="13" height="12" fill="#BBBBBB"/>
<g id="home page + about">
<g id="homepage">
<path d="M-1032 -1873C-1032 -1874.1 -1031.1 -1875 -1030 -1875H3035C3036.1 -1875 3037 -1874.1 3037 -1873V3245C3037 3246.1 3036.1 3247 3035 3247H-1030C-1031.1 3247 -1032 3246.1 -1032 3245V-1873Z" fill="#F1F1F1"/>
<g id="home page" clip-path="url(#clip0_0_1)">
<rect width="1512" height="4035" transform="translate(-755 -1282)" fill="url(#paint0_linear_0_1)"/>
<g id="Frame 5736">
<g id="Frame 5420">
<g id="Frame 5735">
<g id="stats" clip-path="url(#clip1_0_1)">
<g id="Frame 5734">
<g id="stats_2">
<rect width="1320" height="104" transform="translate(-659 -64)" fill="white" fill-opacity="0.5"/>
<g id="Frame 5732">
<g id="Frame 4994">
<g id="Frame 5559">
<path id="Vector" fill-rule="evenodd" clip-rule="evenodd" d="M12.1116 10.9185C12.1114 11.0914 12.0427 11.2571 11.9206 11.3793C11.7984 11.5014 11.6327 11.5701 11.4599 11.5702L4.08212 11.5702C3.9946 11.5733 3.90736 11.5588 3.82559 11.5274C3.74383 11.496 3.66922 11.4485 3.60621 11.3877C3.54321 11.3269 3.4931 11.254 3.45887 11.1734C3.42465 11.0928 3.40701 11.0061 3.40701 10.9185C3.40701 10.831 3.42465 10.7443 3.45887 10.6637C3.4931 10.5831 3.54321 10.5102 3.60621 10.4494C3.66922 10.3886 3.74383 10.341 3.82559 10.3097C3.90736 10.2783 3.9946 10.2638 4.08212 10.2668L9.88593 10.2668L1.16176 1.54268C1.03947 1.42039 0.970768 1.25452 0.970768 1.08157C0.970768 0.908621 1.03947 0.742756 1.16177 0.620462C1.28406 0.498169 1.44992 0.429465 1.62287 0.429465C1.79582 0.429465 1.96169 0.498168 2.08398 0.620462L10.8082 9.34463L10.8082 3.54081C10.8051 3.4533 10.8196 3.36605 10.851 3.28429C10.8824 3.20252 10.9299 3.12791 10.9907 3.06491C11.0515 3.0019 11.1244 2.95179 11.205 2.91757C11.2856 2.88334 11.3723 2.86571 11.4599 2.8657C11.5474 2.8657 11.6341 2.88334 11.7147 2.91757C11.7953 2.95179 11.8682 3.0019 11.929 3.06491C11.9898 3.12791 12.0374 3.20252 12.0687 3.28429C12.1001 3.36605 12.1146 3.4533 12.1116 3.54081L12.1116 10.9185Z" fill="#FE6126"/>
</g>
</g>
</g>
</g>
</g>
</g>
</g>
</g>
</g>
</g>
<path d="M-1030 -1874H3035V-1876H-1030V-1874ZM3036 -1873V3245H3038V-1873H3036ZM3035 3246H-1030V3248H3035V3246ZM-1031 3245V-1873H-1033V3245H-1031ZM-1030 3246C-1030.55 3246 -1031 3245.55 -1031 3245H-1033C-1033 3246.66 -1031.66 3248 -1030 3248V3246ZM3036 3245C3036 3245.55 3035.55 3246 3035 3246V3248C3036.66 3248 3038 3246.66 3038 3245H3036ZM3035 -1874C3035.55 -1874 3036 -1873.55 3036 -1873H3038C3038 -1874.66 3036.66 -1876 3035 -1876V-1874ZM-1030 -1876C-1031.66 -1876 -1033 -1874.66 -1033 -1873H-1031C-1031 -1873.55 -1030.55 -1874 -1030 -1874V-1876Z" fill="black" fill-opacity="0.1"/>
</g>
<path d="M-1557 -2307H13635V-2507H-1557V-2307ZM13537 -2405V8027H13737V-2405H13537ZM13635 7929H-1557V8129H13635V7929ZM-1459 8027V-2405H-1659V8027H-1459ZM-1557 7929C-1502.87 7929 -1459 7972.88 -1459 8027H-1659C-1659 8083.33 -1613.34 8129 -1557 8129V7929ZM13537 8027C13537 7972.87 13580.9 7929 13635 7929V8129C13691.3 8129 13737 8083.34 13737 8027H13537ZM13635 -2307C13580.9 -2307 13537 -2350.88 13537 -2405H13737C13737 -2461.33 13691.3 -2507 13635 -2507V-2307ZM-1557 -2507C-1613.32 -2507 -1659 -2461.34 -1659 -2405H-1459C-1459 -2350.87 -1502.89 -2307 -1557 -2307V-2507Z" fill="black" fill-opacity="0.1"/>
</g>
<defs>
<linearGradient id="paint0_linear_0_1" x1="756" y1="0" x2="756" y2="4198.55" gradientUnits="userSpaceOnUse">
<stop stop-color="#E7E7E7"/>
<stop offset="0.463542" stop-color="#E7E7E7"/>
<stop offset="0.926472" stop-color="#F73737" stop-opacity="0.72"/>
</linearGradient>
<clipPath id="clip0_0_1">
<rect width="1512" height="4035" fill="white" transform="translate(-755 -1282)"/>
</clipPath>
<clipPath id="clip1_0_1">
<rect width="1320" height="775" fill="white" transform="translate(-659 -184)"/>
</clipPath>
</defs>
</svg>
