<svg width="24" height="24" viewBox="0 0 24 24" fill="none" xmlns="http://www.w3.org/2000/svg">
<path d="M10 17C8.61553 17 7.26215 16.5895 6.11101 15.8203C4.95987 15.0511 4.06266 13.9579 3.53285 12.6788C3.00303 11.3997 2.86441 9.99224 3.13451 8.63437C3.4046 7.2765 4.07129 6.02922 5.05026 5.05026C6.02922 4.07129 7.2765 3.4046 8.63437 3.13451C9.99224 2.86441 11.3997 3.00303 12.6788 3.53285C13.9579 4.06266 15.0511 4.95987 15.8203 6.11101C16.5895 7.26215 17 8.61553 17 10C17 10.9193 16.8189 11.8295 16.4672 12.6788C16.1154 13.5281 15.5998 14.2997 14.9497 14.9497C14.2997 15.5998 13.5281 16.1154 12.6788 16.4672C11.8295 16.8189 10.9193 17 10 17ZM10 4.40372C8.89684 4.40372 7.81845 4.73085 6.9012 5.34373C5.98396 5.95662 5.26905 6.82773 4.84689 7.84692C4.42473 8.86611 4.31427 9.9876 4.52949 11.0696C4.7447 12.1515 5.27593 13.1454 6.05598 13.9254C6.83603 14.7055 7.82988 15.2367 8.91185 15.4519C9.99381 15.6671 11.1153 15.5567 12.1345 15.1345C13.1537 14.7124 14.0248 13.9975 14.6377 13.0802C15.2506 12.163 15.5777 11.0846 15.5777 9.98141C15.5777 8.50211 14.99 7.08341 13.944 6.03739C12.898 4.99137 11.4793 4.40372 10 4.40372Z" fill="#9E9E9E"/>
<path d="M18.3322 19C18.2444 19.0004 18.1574 18.9833 18.0763 18.9496C17.9952 18.916 17.9216 18.8664 17.8599 18.804L14.1794 15.1239C14.0613 14.9972 13.997 14.8296 14.0001 14.6565C14.0032 14.4834 14.0733 14.3182 14.1958 14.1957C14.3182 14.0733 14.4834 14.0032 14.6566 14.0001C14.8297 13.997 14.9973 14.0613 15.124 14.1794L18.8045 17.8594C18.9297 17.9847 19 18.1546 19 18.3317C19 18.5088 18.9297 18.6787 18.8045 18.804C18.7428 18.8664 18.6693 18.916 18.5882 18.9496C18.507 18.9833 18.42 19.0004 18.3322 19Z" fill="#9E9E9E"/>
</svg>
