<svg width="63" height="48" viewBox="0 0 63 48" fill="none" xmlns="http://www.w3.org/2000/svg">
<path d="M13.5 11.7998C12.9477 11.7998 12.5 12.2475 12.5 12.7998C12.5 13.3521 12.9477 13.7998 13.5 13.7998V11.7998ZM60 11.7998L13.5 11.7998V13.7998L60 13.7998V11.7998Z" fill="white"/>
<path d="M2 1H61C61.5523 1 62 1.44772 62 2V12.8V46C62 46.5523 61.5523 47 61 47H2C1.44772 47 1 46.5523 1 46V2C1 1.44772 1.44772 1 2 1Z" stroke="white" stroke-width="2"/>
<path d="M43 22.3999H60.5C61.0523 22.3999 61.5 22.8476 61.5 23.3999V32.5999C61.5 33.1522 61.0523 33.5999 60.5 33.5999H43C42.4477 33.5999 42 33.1522 42 32.5999V23.3999C42 22.8476 42.4477 22.3999 43 22.3999Z" stroke="white" stroke-width="2"/>
</svg>
