<svg width="150" height="36" viewBox="0 0 150 36" fill="none" xmlns="http://www.w3.org/2000/svg">
<g clip-path="url(#clip0_658_10161)">
<path d="M26.6242 3.76489C25.3406 2.5883 23.3986 2 20.8 2C17.7939 2 15.6026 2.5883 14.2243 3.76489C13.8309 4.10004 13.5043 4.49759 13.2427 4.95575L5.25179 5.64031L12.7054 6.27852C12.5562 6.83117 12.4701 7.44264 12.4473 8.11116L1.19925 8.83672L12.4385 9.56229V12.0349L0 13.101L12.4385 14.1653V16.2742L5.25003 16.9071L12.4385 17.4562V19.8361L1.19925 20.5617L12.4385 21.2872V23.7527L5.25003 24.3678L12.4385 24.9828V27.4483L1.19925 28.1739L12.4385 28.8994V29.9887C12.4385 30.4647 12.4877 30.9139 12.586 31.3382L3.29927 32.1333L13.3024 32.989C13.6957 33.5684 14.219 34.08 14.8809 34.5186C16.384 35.5044 18.3558 35.9964 20.7982 35.9964C23.0843 35.9964 24.9473 35.4081 26.3871 34.2315C27.639 33.2136 28.2659 32.0548 28.2659 30.7499V22.2624H21.7376V30.5556C21.7376 30.8123 21.6551 31.012 21.4918 31.1546C21.3267 31.299 21.0651 31.3703 20.7051 31.3703C20.4102 31.3703 20.1556 31.299 19.9431 31.1546C19.7306 31.012 19.6235 30.8123 19.6235 30.5556V7.29646C19.6235 7.00944 19.7131 6.80264 19.8939 6.67429C20.0748 6.54771 20.3452 6.48354 20.7051 6.48354C21.0651 6.48354 21.3267 6.54771 21.4918 6.67607C21.6551 6.80443 21.7376 7.013 21.7376 7.30002V13.971H28.2659V7.91506C28.2659 6.16621 27.7181 4.78461 26.6224 3.76667L26.6242 3.76489Z" fill="#F73737"/>
<path d="M46.5799 32.2291C46.5167 31.6248 46.4553 30.7334 46.3921 29.555V22.3439C46.3921 21.1656 46.1743 20.2421 45.7389 19.5736C45.0541 18.5557 43.7951 17.8069 41.9603 17.3292C43.9496 16.666 45.256 15.78 45.8793 14.6711C46.2217 14.0704 46.3921 13.2164 46.3921 12.1094V8.1232C46.3921 6.35296 45.7266 4.92857 44.3956 3.85359C43.0647 2.77683 41.2087 2.24023 38.8295 2.24023H29.9062V35.6198H37.093V19.5486C37.8111 19.5486 38.3748 19.636 38.7821 19.8107C39.1895 19.9854 39.3949 20.4864 39.3949 21.3135V29.5158C39.3949 31.2326 39.4722 32.5607 39.6302 33.4984C39.7865 34.4361 40.0692 35.1439 40.4765 35.6198H47.6633C47.1629 35.2383 46.8012 34.1081 46.5834 32.2291H46.5799ZM39.3932 13.6924C39.3932 14.5142 39.1158 15.0526 38.5609 15.304C38.3326 15.3985 37.8428 15.4466 37.0912 15.4466V6.48132C37.8094 6.48132 38.373 6.56867 38.7804 6.7416C39.1877 6.9163 39.3932 7.41368 39.3932 8.23552V13.6906V13.6924Z" fill="#F73737"/>
<path d="M53.593 2.23828L48.1797 35.6179H55.2716L56.5236 26.6526H59.8439L61.0958 35.6179H68.1878L62.7744 2.23828H53.593ZM57.1486 22.0764L58.16 12.0628L59.2188 22.0764H57.1486Z" fill="#F73737"/>
<path d="M81.4578 17.6414C80.2937 16.4327 79.0505 15.1456 77.7284 13.7782C76.7837 12.755 76.3114 11.6978 76.3114 10.6104V7.4906C76.3114 7.13941 76.4097 6.88269 76.6046 6.72225C76.8013 6.56359 77.0945 6.48158 77.486 6.48158C77.8126 6.48158 78.0813 6.57072 78.2937 6.74543C78.5062 6.92191 78.6116 7.16971 78.6116 7.48882V13.682H85.1399V7.91132C85.1399 6.16248 84.592 4.78087 83.4964 3.76294C82.2128 2.58634 80.2708 1.99805 77.6722 1.99805C74.6661 1.99805 72.4748 2.58634 71.0965 3.76294C69.906 4.78087 69.3125 6.35501 69.3125 8.48357V12.2505C69.3125 13.4894 69.8621 14.8247 70.9648 16.2562C71.2159 16.5753 72.3817 17.8464 74.4589 20.0712C75.7179 21.4439 76.8978 22.7061 78.0005 23.8542C78.4096 24.3961 78.6133 25.1306 78.6133 26.0558V30.0313C78.6133 30.4146 78.4992 30.7034 78.2727 30.8941C78.0462 31.0849 77.7055 31.1811 77.2525 31.1811C76.8627 31.1811 76.5309 31.0777 76.2552 30.8692C75.9795 30.6624 75.8426 30.3825 75.8426 30.0295V22.3103H69.3143V29.9404C69.3143 31.4985 69.8305 32.8016 70.8647 33.8517C72.243 35.2814 74.4185 35.998 77.393 35.998C80.5237 35.998 82.7466 35.3937 84.0618 34.1868C85.189 33.1386 85.7527 31.5163 85.7527 29.3236V25.0789C85.7527 23.6492 85.2961 22.2818 84.3831 20.9786C83.9424 20.3422 82.9661 19.2298 81.4561 17.6414H81.4578Z" fill="#F73737"/>
<path d="M96.5089 15.4946H94.4897V2.23828H87.3047V35.6179H94.4897V19.5948H96.5089V35.6179H103.696V2.23828H96.5089V15.4946Z" fill="#F73737"/>
<path d="M121.924 32.2291C121.86 31.6248 121.799 30.7334 121.736 29.555V22.3439C121.736 21.1656 121.518 20.2421 121.083 19.5736C120.4 18.5557 119.139 17.8069 117.304 17.3292C119.293 16.666 120.6 15.78 121.223 14.6711C121.565 14.0704 121.736 13.2164 121.736 12.1094V8.1232C121.736 6.35296 121.07 4.92857 119.739 3.85359C118.408 2.77683 116.552 2.24023 114.173 2.24023H105.25V35.6198H112.437V19.5486C113.155 19.5486 113.719 19.636 114.126 19.8107C114.533 19.9854 114.739 20.4864 114.739 21.3135V29.5158C114.739 31.2326 114.816 32.5607 114.974 33.4984C115.13 34.4361 115.413 35.1439 115.819 35.6198H123.005C122.505 35.2383 122.143 34.1081 121.925 32.2291H121.924ZM114.737 13.6924C114.737 14.5142 114.46 15.0526 113.905 15.304C113.676 15.3985 113.187 15.4466 112.435 15.4466V6.48132C113.153 6.48132 113.717 6.56867 114.124 6.7416C114.531 6.9163 114.737 7.41368 114.737 8.23552V13.6906V13.6924Z" fill="#F73737"/>
</g>
<rect x="118.5" y="0.5" width="31" height="13" rx="6.5" fill="#202020" stroke="white"/>
<path d="M125.77 10V4.393H127.561C127.903 4.393 128.2 4.429 128.452 4.501C128.71 4.567 128.923 4.666 129.091 4.798C129.265 4.924 129.394 5.077 129.478 5.257C129.568 5.431 129.613 5.626 129.613 5.842C129.613 5.986 129.583 6.139 129.523 6.301C129.463 6.457 129.376 6.601 129.262 6.733C129.148 6.865 129.007 6.967 128.839 7.039C128.989 7.111 129.124 7.195 129.244 7.291C129.37 7.387 129.475 7.492 129.559 7.606C129.649 7.714 129.715 7.831 129.757 7.957C129.805 8.083 129.829 8.215 129.829 8.353C129.829 8.599 129.781 8.824 129.685 9.028C129.589 9.232 129.445 9.406 129.253 9.55C129.061 9.694 128.824 9.805 128.542 9.883C128.26 9.961 127.93 10 127.552 10H125.77ZM127.048 8.965H127.651C127.837 8.965 127.993 8.938 128.119 8.884C128.245 8.824 128.341 8.746 128.407 8.65C128.473 8.554 128.506 8.446 128.506 8.326C128.506 8.176 128.473 8.047 128.407 7.939C128.347 7.825 128.242 7.738 128.092 7.678C127.948 7.612 127.753 7.579 127.507 7.579H127.048V8.965ZM127.048 6.58H127.48C127.702 6.58 127.873 6.556 127.993 6.508C128.119 6.454 128.206 6.379 128.254 6.283C128.302 6.187 128.326 6.076 128.326 5.95C128.326 5.86 128.311 5.782 128.281 5.716C128.251 5.65 128.203 5.596 128.137 5.554C128.077 5.506 127.999 5.47 127.903 5.446C127.807 5.422 127.696 5.41 127.57 5.41H127.048V6.58ZM130.414 10V4.393H134.203V5.401H131.665V6.58H133.744V7.588H131.665V8.992H134.185V10H130.414ZM136.111 10V5.446H134.662V4.393H138.856V5.446H137.317V10H136.111ZM142.357 8.911H140.062L140.215 8.029H142.177L142.357 8.911ZM141.259 6.571L140.35 10H139.09L140.872 4.393H141.637L143.419 10H142.141L141.259 6.571Z" fill="white"/>
<defs>
<clipPath id="clip0_658_10161">
<rect width="123" height="34" fill="white" transform="translate(0 2)"/>
</clipPath>
</defs>
</svg>
