<svg width="39" height="35" viewBox="0 0 39 35" fill="none" xmlns="http://www.w3.org/2000/svg">
<path d="M38.4993 17.5022C38.4993 19.3107 35.047 20.5701 34.4972 22.2019C33.9277 23.8928 35.9332 26.8658 34.8705 28.2734C33.7977 29.6953 30.2389 28.7692 28.7652 29.8038C27.3055 30.828 27.1249 34.3833 25.3715 34.9324C23.6794 35.462 21.3741 32.7054 19.4993 32.7054C17.6246 32.7054 15.3193 35.462 13.6272 34.9324C11.8737 34.3833 11.6931 30.828 10.2335 29.8038C8.75905 28.7692 5.20098 29.6953 4.12816 28.2734C3.06613 26.8658 5.07092 23.8934 4.50149 22.2019C3.95228 20.5707 0.5 19.3107 0.5 17.5022C0.5 15.6936 3.95228 14.4342 4.50216 12.8024C5.07159 11.1115 3.06613 8.13848 4.12883 6.73091C5.20165 5.30904 8.7604 6.23507 10.2342 5.20052C11.6938 4.17635 11.8744 0.621029 13.6278 0.0719068C15.3813 -0.477216 17.6253 2.29894 19.5 2.29894C21.3747 2.29894 23.6801 -0.45707 25.3722 0.0725566C27.0643 0.602184 27.3062 4.177 28.7658 5.20117C30.2403 6.23572 33.7984 5.30969 34.8712 6.73156C35.9332 8.13913 33.9284 11.1115 34.4978 12.8031C35.0673 14.4947 38.5 15.6943 38.5 17.5028L38.4993 17.5022Z" fill="#F73737"/>
<path d="M38.4993 17.5022C38.4993 19.3107 35.047 20.5701 34.4972 22.2019C33.9277 23.8928 35.9332 26.8658 34.8705 28.2734C33.7977 29.6953 30.2389 28.7692 28.7652 29.8038C27.3055 30.828 27.1249 34.3833 25.3715 34.9324C23.6794 35.462 21.3741 32.7054 19.4993 32.7054C17.6246 32.7054 15.3193 35.462 13.6272 34.9324C11.8737 34.3833 11.6931 30.828 10.2335 29.8038C8.75905 28.7692 5.20098 29.6953 4.12816 28.2734C3.06613 26.8658 5.07092 23.8934 4.50149 22.2019C3.95228 20.5707 0.5 19.3107 0.5 17.5022C0.5 15.6936 3.95228 14.4342 4.50216 12.8024C5.07159 11.1115 3.06613 8.13848 4.12883 6.73091C5.20165 5.30904 8.7604 6.23507 10.2342 5.20052C11.6938 4.17635 11.8744 0.621029 13.6278 0.0719068C15.3813 -0.477216 17.6253 2.29894 19.5 2.29894C21.3747 2.29894 23.6801 -0.45707 25.3722 0.0725566C27.0643 0.602184 27.3062 4.177 28.7658 5.20117C30.2403 6.23572 33.7984 5.30969 34.8712 6.73156C35.9332 8.13913 33.9284 11.1115 34.4978 12.8031C35.0673 14.4947 38.5 15.6943 38.5 17.5028L38.4993 17.5022Z" fill="white" fill-opacity="0.25"/>
<path d="M17.4097 24.0792C17.3962 24.0792 17.382 24.0792 17.3686 24.0779C17.1118 24.0656 16.8773 23.9356 16.7351 23.729L12.7727 17.9512C12.5261 17.5918 12.6285 17.1083 13.0012 16.8705C13.3738 16.6326 13.8752 16.7314 14.1218 17.0908L17.4791 21.9861L26.629 11.2116C26.912 10.8782 27.4215 10.8295 27.7672 11.1024C28.1129 11.3753 28.1634 11.8666 27.8804 12.2L18.0357 23.7933C17.8814 23.9746 17.6516 24.0792 17.4103 24.0792H17.4097Z" fill="white"/>
</svg>
