<svg width="26" height="25" viewBox="0 0 26 25" fill="none" xmlns="http://www.w3.org/2000/svg">
<path d="M8.70611 14.2144C8.96423 13.6982 9.10989 13.1156 9.10989 12.4997C9.10989 11.8839 8.96423 11.3012 8.70611 10.785M8.70611 14.2144C8.31985 14.9866 7.68415 15.6058 6.90201 15.9717C6.11986 16.3375 5.2371 16.4286 4.39672 16.2302C3.55633 16.0318 2.80757 15.5554 2.27172 14.8784C1.73587 14.2013 1.44434 13.3631 1.44434 12.4997C1.44434 11.6363 1.73587 10.7981 2.27172 10.1211C2.80757 9.444 3.55633 8.96766 4.39672 8.76923C5.2371 8.57079 6.11986 8.66189 6.90201 9.02775C7.68415 9.39362 8.31985 10.0128 8.70611 10.785M8.70611 14.2144L17.1804 18.4512M8.70611 10.785L17.1804 6.54821M17.1804 18.4512C16.7256 19.3607 16.6508 20.4137 16.9723 21.3783C17.2939 22.343 17.9856 23.1405 18.8952 23.5952C19.8047 24.05 20.8577 24.1248 21.8225 23.8032C22.7872 23.4817 23.5847 22.7901 24.0395 21.8806C24.4943 20.971 24.5692 19.9181 24.2476 18.9534C23.926 17.9887 23.2343 17.1913 22.3247 16.7366C21.8744 16.5114 21.384 16.3771 20.8818 16.3414C20.3795 16.3057 19.8751 16.3693 19.3974 16.5285C18.4327 16.8501 17.6352 17.5417 17.1804 18.4512ZM17.1804 6.54821C17.4056 6.99847 17.7172 7.39998 18.0976 7.72979C18.478 8.05961 18.9196 8.31129 19.3972 8.47045C19.8749 8.62961 20.3792 8.69314 20.8814 8.65742C21.3836 8.62169 21.8738 8.48741 22.3241 8.26224C22.7744 8.03707 23.1759 7.72541 23.5058 7.34507C23.8356 6.96473 24.0873 6.52315 24.2465 6.04554C24.4057 5.56794 24.4692 5.06366 24.4335 4.5615C24.3977 4.05934 24.2634 3.56914 24.0383 3.11888C23.5835 2.20953 22.786 1.51808 21.8214 1.19664C20.8568 0.875195 19.8039 0.950091 18.8945 1.40485C17.9851 1.85961 17.2936 2.65698 16.9722 3.62154C16.6507 4.58611 16.7256 5.63886 17.1804 6.54821Z" stroke="black" stroke-width="2" stroke-linecap="round" stroke-linejoin="round"/>
</svg>
