<svg width="33" height="36" viewBox="0 0 33 36" fill="none" xmlns="http://www.w3.org/2000/svg">
<path d="M30.7033 1.84574C29.2229 0.615247 26.9837 0 23.9869 0C20.5207 0 17.9923 0.615247 16.4038 1.84574C15.9508 2.19745 15.574 2.61267 15.2713 3.09045L6.05438 3.80619L14.6506 4.47358C14.4797 5.05185 14.3798 5.6908 14.353 6.39136L1.38362 7.15165L14.3448 7.91099V10.4971L0 11.611L14.3448 12.7249V14.9309L6.05335 15.5935L14.3448 16.1671V18.6565L1.38362 19.4158L14.3448 20.1752V22.7537L6.05335 23.3974L14.3448 24.0411V26.6196L1.38362 27.379L14.3448 28.1383V29.2778C14.3448 29.7755 14.4025 30.2457 14.5147 30.6884L3.80496 31.5198L15.3413 32.4156C15.7943 33.0224 16.3986 33.557 17.1615 34.0159C18.8951 35.0473 21.1703 35.562 23.9859 35.562C26.6214 35.562 28.7699 34.9468 30.4315 33.7163C31.8758 32.6526 32.5985 31.4392 32.5985 30.0751V21.1962H25.0689V29.8703C25.0689 30.1386 24.9742 30.3471 24.7858 30.4979C24.5964 30.6486 24.2937 30.7235 23.8788 30.7235C23.5381 30.7235 23.2457 30.6486 23.0007 30.4979C22.7557 30.3481 22.6321 30.1395 22.6321 29.8722V5.53912C22.6321 5.23861 22.7351 5.02246 22.9441 4.88785C23.152 4.75513 23.4639 4.68782 23.8788 4.68782C24.2937 4.68782 24.5964 4.75513 24.7858 4.8888C24.9742 5.02246 25.0689 5.2405 25.0689 5.54101V12.5182H32.5985V6.18375C32.5985 4.35508 31.9664 2.90844 30.7022 1.84384L30.7033 1.84574Z" fill="#202020"/>
</svg>
