<svg width="49" height="37" viewBox="0 0 49 37" fill="none" xmlns="http://www.w3.org/2000/svg">
<g clip-path="url(#clip0_146_42602)">
<path d="M40.9282 3.1729C37.7537 1.74414 34.4026 0.730529 30.9602 0.157959C30.4892 0.98581 30.063 1.83756 29.6834 2.70964C26.0166 2.16643 22.2877 2.16643 18.621 2.70964C18.2412 1.83765 17.815 0.98591 17.3441 0.157959C13.8995 0.735364 10.5462 1.75138 7.36856 3.18037C1.06022 12.356 -0.649871 21.3037 0.205175 30.1243C3.8995 32.8077 8.03449 34.8485 12.4304 36.158C13.4203 34.8492 14.2961 33.4607 15.0488 32.0073C13.6193 31.4824 12.2395 30.8348 10.9255 30.072C11.2714 29.8255 11.6096 29.5714 11.9364 29.3248C15.7598 31.0925 19.9328 32.009 24.1579 32.009C28.3829 32.009 32.5559 31.0925 36.3793 29.3248C36.7099 29.5901 37.0481 29.8441 37.3902 30.072C36.0736 30.836 34.6914 31.4849 33.2593 32.011C34.0111 33.4638 34.887 34.8511 35.8777 36.158C40.2774 34.8538 44.4155 32.814 48.1105 30.1281C49.1138 19.8989 46.3966 11.0334 40.9282 3.1729ZM16.1318 24.6997C13.7491 24.6997 11.7806 22.5739 11.7806 19.9587C11.7806 17.3435 13.6807 15.1991 16.1242 15.1991C18.5678 15.1991 20.5211 17.3435 20.4793 19.9587C20.4375 22.5739 18.5602 24.6997 16.1318 24.6997ZM32.1839 24.6997C29.7974 24.6997 27.8365 22.5739 27.8365 19.9587C27.8365 17.3435 29.7366 15.1991 32.1839 15.1991C34.6312 15.1991 36.5693 17.3435 36.5275 19.9587C36.4857 22.5739 34.6122 24.6997 32.1839 24.6997Z" fill="black"/>
</g>
<defs>
<clipPath id="clip0_146_42602">
<rect width="48.3158" height="36" fill="white" transform="translate(0 0.157959)"/>
</clipPath>
</defs>
</svg>
