<svg width="51" height="39" viewBox="0 0 51 39" fill="none" xmlns="http://www.w3.org/2000/svg">
<path d="M43.2019 3.3404C39.8512 1.83226 36.3138 0.762338 32.6802 0.157959C32.183 1.0318 31.7331 1.93087 31.3324 2.8514C27.462 2.27802 23.5259 2.27802 19.6555 2.8514C19.2546 1.93096 18.8047 1.03191 18.3077 0.157959C14.6717 0.767442 11.132 1.83991 7.77792 3.34829C1.11912 13.0336 -0.685975 22.4784 0.216573 31.7891C4.11613 34.6216 8.48085 36.7758 13.121 38.158C14.1658 36.7765 15.0904 35.3108 15.8848 33.7767C14.3759 33.2226 12.9195 32.5391 11.5325 31.7339C11.8976 31.4736 12.2546 31.2055 12.5995 30.9452C16.6353 32.8111 21.0402 33.7785 25.5 33.7785C29.9597 33.7785 34.3646 32.8111 38.4004 30.9452C38.7494 31.2252 39.1064 31.4934 39.4674 31.7339C38.0777 32.5404 36.6187 33.2253 35.1071 33.7806C35.9006 35.3141 36.8251 36.7785 37.8709 38.158C42.515 36.7813 46.8831 34.6282 50.7833 31.7931C51.8423 20.9957 48.9742 11.6376 43.2019 3.3404ZM17.028 26.0631C14.5129 26.0631 12.4351 23.8192 12.4351 21.0587C12.4351 18.2983 14.4407 16.0347 17.02 16.0347C19.5993 16.0347 21.6611 18.2983 21.617 21.0587C21.5729 23.8192 19.5913 26.0631 17.028 26.0631ZM33.9719 26.0631C31.4528 26.0631 29.3829 23.8192 29.3829 21.0587C29.3829 18.2983 31.3886 16.0347 33.9719 16.0347C36.5552 16.0347 38.601 18.2983 38.5568 21.0587C38.5127 23.8192 36.5351 26.0631 33.9719 26.0631Z" fill="white"/>
</svg>
