<svg width="37" height="37" viewBox="0 0 37 37" fill="none" xmlns="http://www.w3.org/2000/svg">
<g clip-path="url(#clip0_146_42604)">
<path d="M27.315 36.158H9.17682C8.82714 36.0903 8.47746 36.0226 8.12778 35.9436C6.24403 35.5092 4.60279 34.6178 3.22664 33.2581C2.28476 32.3272 1.56848 31.2384 1.05524 30.0254C0.643525 29.0494 0.333326 28.0169 0.327686 26.9563C0.305126 21.3709 0.327686 15.78 0.316406 10.1946C0.316406 8.96474 0.508166 7.79126 0.942444 6.64034C1.60796 4.85191 2.69084 3.38505 4.19671 2.21157C5.95639 0.834982 7.98114 0.163614 10.1864 0.157972C15.77 0.141047 21.3479 0.186181 26.9315 0.220031C27.3432 0.220031 27.7549 0.287732 28.161 0.355433C30.5411 0.767281 32.4756 1.93512 34.0153 3.77997C35.0192 4.98167 35.6847 6.34697 36.0344 7.87024C36.1246 8.27081 36.2205 8.67137 36.3164 9.07758V27.2948C36.2713 27.3907 36.1923 27.4866 36.181 27.5882C36.0795 28.519 35.8088 29.4104 35.4253 30.2623C34.7259 31.8138 33.7107 33.1114 32.3402 34.1269C31.2968 34.8999 30.1688 35.5148 28.8885 35.8082C28.364 35.9267 27.8395 36.0451 27.315 36.158ZM33.1242 18.1495C33.1242 15.8985 33.1355 13.6474 33.1242 11.3963C33.1242 10.6403 33.0847 9.88435 33.0114 9.13399C32.8704 7.77433 32.2895 6.59521 31.3814 5.59098C29.9883 4.04514 28.1948 3.3512 26.1419 3.34556C20.9136 3.32863 15.691 3.33992 10.4627 3.34556C9.62237 3.34556 8.79894 3.45275 7.99806 3.73484C6.74598 4.1749 5.70823 4.91397 4.90735 5.96333C3.92599 7.24965 3.49172 8.71086 3.503 10.347C3.5312 15.5543 3.51428 20.756 3.51428 25.9633C3.51428 26.409 3.48044 26.866 3.56504 27.2948C3.87523 28.8914 4.58587 30.268 5.86051 31.3399C7.12386 32.4062 8.55078 32.976 10.2089 32.9704C15.5274 32.9647 20.8459 32.9704 26.1644 32.9704C26.8751 32.9704 27.5632 32.8801 28.2512 32.6714C30.1406 32.1128 31.4999 30.9337 32.391 29.2073C32.9099 28.2031 33.1073 27.1143 33.1129 25.9915C33.1242 23.3794 33.1129 20.7616 33.1129 18.1495H33.1242Z" fill="black"/>
<path d="M18.2429 8.93573C23.4768 8.80597 27.233 13.0993 27.5263 17.3307C27.7237 20.1741 26.8834 22.6847 24.8642 24.6931C22.9128 26.6339 20.4989 27.5817 17.724 27.4294C15.485 27.3053 13.5335 26.4251 11.9148 24.8624C9.84497 22.8652 8.88618 20.3998 9.04409 17.5394C9.28661 13.1783 13.0146 8.83982 18.2429 8.94137V8.93573ZM24.3679 18.1487C24.4356 14.9442 21.6777 11.8751 17.8932 12.0951C14.7856 12.2756 12.3322 14.7749 12.225 17.8779C12.0953 21.6071 14.983 24.1854 18.1301 24.2474C21.5874 24.3095 24.3905 21.5676 24.3679 18.1487Z" fill="black"/>
<path d="M30.2666 8.48449C30.3625 9.77081 29.1555 10.8315 27.988 10.8484C26.7134 10.871 25.5459 9.74824 25.6249 8.36601C25.6813 7.31101 26.6232 6.09803 28.0839 6.18266C29.2119 6.25036 30.3343 7.19817 30.2722 8.47885L30.2666 8.48449Z" fill="black"/>
</g>
<defs>
<clipPath id="clip0_146_42604">
<rect width="36" height="36" fill="white" transform="translate(0.316406 0.157959)"/>
</clipPath>
</defs>
</svg>
