<svg width="36" height="37" viewBox="0 0 36 37" fill="none" xmlns="http://www.w3.org/2000/svg">
<g clip-path="url(#clip0_146_42601)">
<path d="M19.3514 36.1581H16.5415C16.4958 36.1343 16.4527 36.0946 16.4043 36.0875C15.726 35.9914 15.0415 35.9288 14.3694 35.7993C13.0445 35.5445 11.7707 35.1231 10.5452 34.5518C9.0848 33.8712 7.69569 33.0706 6.50979 31.9713C5.61861 31.1452 4.72391 30.3094 3.94622 29.3802C2.88173 28.1089 2.06709 26.6657 1.41783 25.1299C0.64278 23.2979 0.179155 21.3883 0.0480732 19.4135C-0.0566163 17.8389 -0.00119246 16.2529 0.322553 14.6995C0.627824 13.2325 1.0721 11.8051 1.71959 10.4474C2.56062 8.68244 3.64887 7.08582 4.99487 5.67259C5.48225 5.16125 6.02769 4.70457 6.55818 4.23555C7.45904 3.44033 8.45843 2.78705 9.515 2.2237C10.7158 1.58364 11.9686 1.05732 13.2953 0.750516C14.2902 0.520413 15.2984 0.321168 16.311 0.198623C17.0157 0.113106 17.7388 0.19157 18.4523 0.175701C19.4368 0.15366 20.4018 0.285903 21.3678 0.456055C22.8669 0.719659 24.2965 1.19573 25.6697 1.83843C26.875 2.40267 27.987 3.11854 29.0453 3.93228C30.3139 4.90823 31.4215 6.03934 32.3795 7.30711C33.4616 8.73798 34.322 10.3046 34.9123 12.0097C35.3337 13.2245 35.6707 14.4588 35.7938 15.746C35.8255 16.0757 35.9284 16.3992 35.9988 16.7254V19.6119C35.9751 19.6454 35.9363 19.6771 35.9302 19.7132C35.8334 20.2978 35.7402 20.8823 35.6487 21.4677C35.4111 22.9885 34.9229 24.4317 34.2684 25.8158C33.1045 28.2764 31.4892 30.3976 29.3418 32.0753C28.4313 32.7868 27.475 33.4594 26.4685 34.0219C24.5146 35.1133 22.4059 35.779 20.1713 36.0197C19.896 36.0496 19.6233 36.1113 19.3497 36.1581H19.3514ZM19.1403 19.2028C19.1209 19.2213 19.1024 19.2407 19.0831 19.2592C19.0831 20.9731 19.0831 22.6861 19.0831 24.3999C19.1024 24.4193 19.1209 24.4387 19.1403 24.4581C19.7191 24.4854 20.2971 24.5137 20.876 24.5401C21.432 24.5648 21.988 24.5763 22.5431 24.615C22.8845 24.6388 23.2223 24.7182 23.5636 24.7464C24.0237 24.7852 24.4865 24.8064 24.9483 24.8152C25.0258 24.8169 25.1595 24.7314 25.1744 24.6653C25.2844 24.1663 25.3838 23.6638 25.4604 23.1586C25.5483 22.5812 25.6187 22.001 25.6794 21.4201C25.7542 20.7007 25.8096 19.9795 25.8738 19.2592C25.8545 19.2398 25.8351 19.2204 25.8158 19.2019C23.5909 19.2019 21.366 19.2019 19.1412 19.2019L19.1403 19.2028ZM25.8149 17.0649L25.873 17.0076C25.8536 16.5447 25.8448 16.0819 25.8114 15.6199C25.7762 15.1262 25.7445 14.6307 25.6653 14.1432C25.5167 13.2245 25.3363 12.3103 25.1736 11.4207C23.1466 11.5265 21.1435 11.6314 19.1403 11.7364C19.1209 11.7558 19.1016 11.7752 19.0831 11.7954C19.0831 13.5322 19.0831 15.2699 19.0831 17.0067L19.1394 17.064C21.3643 17.064 23.5891 17.064 25.814 17.064L25.8149 17.0649ZM16.8934 17.0649L16.9506 17.0084C16.9506 15.2717 16.9506 13.534 16.9506 11.7972C16.9312 11.7778 16.9128 11.7584 16.8934 11.739C14.8929 11.6235 12.8923 11.5089 10.8566 11.3908C10.3939 13.1805 10.1924 15.0874 10.0904 17.0076C10.1097 17.027 10.1291 17.0463 10.1484 17.0649H16.8934ZM7.88835 17.0631C8.15316 15.0098 8.41356 12.9874 8.66605 11.0249C7.2435 10.6855 5.80512 10.3416 4.35266 9.99516C3.06999 12.1551 2.34157 14.517 2.15506 17.0631H7.88835ZM28.0222 19.2054C27.9395 20.043 27.8867 20.8496 27.775 21.6484C27.6192 22.7636 27.416 23.8727 27.248 24.9862C27.2366 25.0629 27.3395 25.2181 27.4125 25.2357C28.7427 25.554 30.0755 25.8616 31.4118 26.1517C31.5218 26.1755 31.7303 26.0944 31.7769 26.0027C32.1464 25.2745 32.5581 24.556 32.8221 23.7881C33.1731 22.7654 33.4238 21.7057 33.6728 20.6513C33.7819 20.1884 33.7801 19.6991 33.8311 19.2045H28.0231L28.0222 19.2054ZM10.1079 19.201C10.1889 21.1185 10.4053 22.9876 10.8654 24.787C12.924 24.6538 14.9413 24.5234 16.9383 24.3946V19.201H10.1079ZM33.8725 17.0605C33.759 16.3543 33.6569 15.6878 33.5426 15.023C33.2514 13.3391 32.6479 11.7681 31.7936 10.294C31.7356 10.1935 31.5262 10.0983 31.4153 10.1239C30.0227 10.4413 28.6354 10.7816 27.3316 11.0963C27.5779 13.0464 27.8304 15.0415 28.0864 17.0613H33.8733L33.8725 17.0605ZM2.13043 19.2063C2.16122 19.3377 2.19289 19.447 2.21136 19.559C2.35564 20.4256 2.46033 21.301 2.64948 22.158C2.93275 23.4381 3.46764 24.6283 4.06322 25.7911C4.19255 26.0441 4.34914 26.12 4.67113 26.0336C5.70043 25.7585 6.74644 25.5487 7.7863 25.3133C8.11005 25.2401 8.43467 25.1678 8.66429 25.1167C8.40564 23.1004 8.15491 21.1529 7.90507 19.2063H2.13043ZM16.962 2.39121C16.7342 2.46614 16.5389 2.51375 16.3568 2.59222C15.3169 3.04008 14.5348 3.8062 13.8469 4.67813C12.7797 6.02876 12.0636 7.56454 11.4918 9.18496C11.5525 9.21846 11.5903 9.25461 11.6308 9.25901C12.2677 9.33307 12.9029 9.42564 13.5416 9.46796C14.5471 9.53496 15.5562 9.55612 16.5626 9.62048C16.9031 9.64252 16.9699 9.51645 16.9682 9.20083C16.9541 7.2886 16.9612 5.37725 16.9612 3.46502V2.39209L16.962 2.39121ZM11.4487 26.8596C11.6537 27.393 11.812 27.8885 12.0284 28.3566C12.7876 29.9956 13.6498 31.5675 15.0706 32.7489C15.6231 33.2082 16.2266 33.5679 16.9427 33.7759V26.5387C15.1119 26.6454 13.3041 26.7503 11.4487 26.8588V26.8596ZM19.0901 2.4106V9.66191C20.9191 9.54289 22.7235 9.42652 24.585 9.30574C24.2358 8.49289 23.9463 7.74087 23.5962 7.01882C22.9311 5.64526 22.0945 4.38984 20.9121 3.39802C20.3781 2.95015 19.7807 2.62043 19.091 2.41148L19.0901 2.4106ZM19.0875 33.738C20.1573 33.4462 21.2833 32.6669 22.3857 31.1681C23.3235 29.8933 23.9894 28.4686 24.5067 26.909C22.6698 26.7882 20.8874 26.671 19.0866 26.552C19.0866 28.9835 19.0866 31.3612 19.0875 33.738ZM9.32409 27.1479C8.0775 27.4089 6.8353 27.6698 5.51304 27.9467C7.34115 30.2415 9.55019 31.9184 12.2616 32.9499C10.9419 31.2148 10.02 29.2823 9.32409 27.1479ZM26.648 27.222C25.9486 29.3185 25.039 31.2148 23.7449 32.9261C26.3885 31.9184 28.5738 30.2865 30.4124 28.0384C29.1245 27.7589 27.8823 27.49 26.648 27.222ZM30.3966 8.20724C28.6142 6.027 26.4773 4.40659 23.8839 3.40771C24.0906 3.76389 24.3343 4.08039 24.5498 4.4154C25.4208 5.77133 26.092 7.22336 26.5847 8.75825C26.6463 8.94957 26.7501 9.01392 26.9357 8.9769C27.7574 8.81291 28.5808 8.6551 29.4007 8.48054C29.7271 8.4109 30.0465 8.30422 30.3966 8.20636V8.20724ZM12.0803 3.41829C9.50268 4.38895 7.41593 6.00761 5.62829 8.15611C6.88544 8.43382 8.10565 8.70359 9.33377 8.97513C9.99094 6.94124 10.8777 5.10571 12.0795 3.41829H12.0803Z" fill="black"/>
<path d="M25.8706 19.2595C25.8512 19.2401 25.8319 19.2207 25.8125 19.2021C25.8319 19.2215 25.8512 19.2409 25.8706 19.2595Z" fill="#F7F7F7"/>
<path d="M10.0898 17.0066C10.1092 17.026 10.1286 17.0454 10.1479 17.0639C10.1286 17.0445 10.1092 17.0251 10.0898 17.0066Z" fill="#F7F7F7"/>
<path d="M19.1392 11.7366C19.1199 11.756 19.1005 11.7754 19.082 11.7956C19.1014 11.7762 19.1207 11.7568 19.1392 11.7366Z" fill="#F7F7F7"/>
</g>
<defs>
<clipPath id="clip0_146_42601">
<rect width="36" height="36" fill="white" transform="translate(0 0.157959)"/>
</clipPath>
</defs>
</svg>
