<svg width="60" height="42" viewBox="0 0 60 42" fill="none" xmlns="http://www.w3.org/2000/svg">
<path d="M33.907 4.07608C32.2721 2.69203 29.7993 2 26.4898 2C22.6619 2 19.8696 2.69203 18.1154 4.07608C17.6152 4.47168 17.1991 4.93871 16.8648 5.47613L6.68612 6.28118L16.1793 7.03185C15.9905 7.68229 15.8802 8.40098 15.8507 9.18897L1.528 10.0441L15.8416 10.8982V13.8071L0 15.06L15.8416 16.3129V18.7942L6.68498 19.5395L15.8416 20.1846V22.9847L1.528 23.8388L15.8416 24.6929V27.5933L6.68498 28.3173L15.8416 29.0413V31.9416L1.528 32.7957L15.8416 33.6498V34.9315C15.8416 35.4913 15.9053 36.0202 16.0292 36.5182L4.20199 37.4533L16.9421 38.4609C17.4424 39.1434 18.1097 39.7448 18.9522 40.2609C20.8667 41.421 23.3793 42 26.4887 42C29.3991 42 31.7719 41.308 33.6068 39.9239C35.2019 38.7275 36 37.3627 36 35.8283V25.8413H27.6847V35.5979C27.6847 35.8997 27.5801 36.1343 27.3721 36.3038C27.1629 36.4734 26.8286 36.5576 26.3704 36.5576C25.9941 36.5576 25.6712 36.4734 25.4007 36.3038C25.1301 36.1354 24.9937 35.9008 24.9937 35.6001V8.23037C24.9937 7.89235 25.1073 7.64924 25.3381 7.49783C25.5678 7.34854 25.9123 7.27284 26.3704 7.27284C26.8286 7.27284 27.1629 7.34854 27.3721 7.49889C27.5801 7.64924 27.6847 7.89449 27.6847 8.2325V16.0804H36V8.95545C36 6.89857 35.3019 5.2714 33.9058 4.07395L33.907 4.07608Z" fill="#F73737"/>
<rect x="28.5" y="0.5" width="31" height="12" rx="6" fill="#202020"/>
<path d="M35.27 9V3.393H37.061C37.403 3.393 37.7 3.429 37.952 3.501C38.21 3.567 38.423 3.666 38.591 3.798C38.765 3.924 38.894 4.077 38.978 4.257C39.068 4.431 39.113 4.626 39.113 4.842C39.113 4.986 39.083 5.139 39.023 5.301C38.963 5.457 38.876 5.601 38.762 5.733C38.648 5.865 38.507 5.967 38.339 6.039C38.489 6.111 38.624 6.195 38.744 6.291C38.87 6.387 38.975 6.492 39.059 6.606C39.149 6.714 39.215 6.831 39.257 6.957C39.305 7.083 39.329 7.215 39.329 7.353C39.329 7.599 39.281 7.824 39.185 8.028C39.089 8.232 38.945 8.406 38.753 8.55C38.561 8.694 38.324 8.805 38.042 8.883C37.76 8.961 37.43 9 37.052 9H35.27ZM36.548 7.965H37.151C37.337 7.965 37.493 7.938 37.619 7.884C37.745 7.824 37.841 7.746 37.907 7.65C37.973 7.554 38.006 7.446 38.006 7.326C38.006 7.176 37.973 7.047 37.907 6.939C37.847 6.825 37.742 6.738 37.592 6.678C37.448 6.612 37.253 6.579 37.007 6.579H36.548V7.965ZM36.548 5.58H36.98C37.202 5.58 37.373 5.556 37.493 5.508C37.619 5.454 37.706 5.379 37.754 5.283C37.802 5.187 37.826 5.076 37.826 4.95C37.826 4.86 37.811 4.782 37.781 4.716C37.751 4.65 37.703 4.596 37.637 4.554C37.577 4.506 37.499 4.47 37.403 4.446C37.307 4.422 37.196 4.41 37.07 4.41H36.548V5.58ZM39.914 9V3.393H43.703V4.401H41.165V5.58H43.244V6.588H41.165V7.992H43.685V9H39.914ZM45.611 9V4.446H44.162V3.393H48.356V4.446H46.817V9H45.611ZM51.857 7.911H49.562L49.715 7.029H51.677L51.857 7.911ZM50.759 5.571L49.85 9H48.59L50.372 3.393H51.137L52.919 9H51.641L50.759 5.571Z" fill="white"/>
<rect x="28.5" y="0.5" width="31" height="12" rx="6" stroke="white"/>
</svg>
